<mxfile host="app.diagrams.net" modified="2023-07-06T11:20:05.421Z" agent="Mozilla/5.0 (Windows NT 10.0; Win64; x64) AppleWebKit/537.36 (KHTML, like Gecko) Chrome/114.0.0.0 Safari/537.36" version="21.5.2" etag="c-V8BxaOHjxswdY_PjM2" type="github">
  <diagram name="第 1 页" id="cecb9tNHnT4WKb9MnGJK">
    <mxGraphModel>
      <root>
        <mxCell id="0" />
        <mxCell id="1" parent="0" />
      </root>
    </mxGraphModel>
  </diagram>
</mxfile>
